HIERARCHY
ROOT Hips
{
  OFFSET 5.84602e-005 68.8428 3.50346
  CHANNELS 6 Xposition Yposition Zposition Zrotation Xrotation Yrotation
  JOINT Spine
  {
    OFFSET 0 8.597 -4.6522
    CHANNELS 3 Zrotation Xrotation Yrotation
    JOINT Spine1
    {
      OFFSET 0 7.8454 0.4098
      CHANNELS 3 Zrotation Xrotation Yrotation
      JOINT Spine2
      {
        OFFSET 0 9.7078 -2.1609
        CHANNELS 3 Zrotation Xrotation Yrotation
        JOINT Neck
        {
          OFFSET 0 21.8761 -0.4549
          CHANNELS 3 Zrotation Xrotation Yrotation
          JOINT Head
          {
            OFFSET 0 12.3537 3.3602
            CHANNELS 3 Zrotation Xrotation Yrotation
            End Site
            {
              OFFSET 0.0001 18.9506 0.5657
            }
          }
        }
        JOINT LeftShoulder
        {
          OFFSET 2.2086 21.1115 7.2329
          CHANNELS 3 Zrotation Xrotation Yrotation
          JOINT LeftArm
          {
            OFFSET 13.1193 3.0282 -4.8998
            CHANNELS 3 Zrotation Xrotation Yrotation
            JOINT LeftForeArm
            {
              OFFSET 27.4081 -0.0973053 -0.2375
              CHANNELS 3 Zrotation Xrotation Yrotation
              JOINT LeftHand
              {
                OFFSET 22.8641 0.0662994 -0.1369
                CHANNELS 3 Zrotation Xrotation Yrotation
                JOINT LeftHandIndex1
                {
                  OFFSET 8.8614 0.775009 2.4612
                  CHANNELS 3 Zrotation Xrotation Yrotation
                  JOINT LeftHandIndex2
                  {
                    OFFSET 3.3146 -0.808304 0.5841
                    CHANNELS 3 Zrotation Xrotation Yrotation
                    JOINT LeftHandIndex3
                    {
                      OFFSET 2.2628 -0.552002 0.3989
                      CHANNELS 3 Zrotation Xrotation Yrotation
                      End Site
                      {
                        OFFSET 1.6102 -0.4807 0.2612
                      }
                    }
                  }
                }
                JOINT LeftHandMiddle1
                {
                  OFFSET 8.9937 0.895004 0.2143
                  CHANNELS 3 Zrotation Xrotation Yrotation
                  JOINT LeftHandMiddle2
                  {
                    OFFSET 4.0984 0.0113983 -0.0242
                    CHANNELS 3 Zrotation Xrotation Yrotation
                    JOINT LeftHandMiddle3
                    {
                      OFFSET 2.2716 0.00689697 -0.0138001
                      CHANNELS 3 Zrotation Xrotation Yrotation
                      End Site
                      {
                        OFFSET 2.0404 -0.1441 0.0027
                      }
                    }
                  }
                }
                JOINT LeftHandRing1
                {
                  OFFSET 8.5234 0.597198 -2.0164
                  CHANNELS 3 Zrotation Xrotation Yrotation
                  JOINT LeftHandRing2
                  {
                    OFFSET 3.7188 -0.188293 -0.2328
                    CHANNELS 3 Zrotation Xrotation Yrotation
                    JOINT LeftHandRing3
                    {
                      OFFSET 2.1191 -0.106598 -0.1332
                      CHANNELS 3 Zrotation Xrotation Yrotation
                      End Site
                      {
                        OFFSET 1.8737 -0.2304 -0.0886
                      }
                    }
                  }
                }
                JOINT LeftHandPinky1
                {
                  OFFSET 7.9094 -0.601089 -3.4825
                  CHANNELS 3 Zrotation Xrotation Yrotation
                  JOINT LeftHandPinky2
                  {
                    OFFSET 2.2874 -0.477005 -0.6314
                    CHANNELS 3 Zrotation Xrotation Yrotation
                    JOINT LeftHandPinky3
                    {
                      OFFSET 1.6774 -0.349396 -0.4633
                      CHANNELS 3 Zrotation Xrotation Yrotation
                      End Site
                      {
                        OFFSET 1.4888 -0.4091 -0.3416
                      }
                    }
                  }
                }
                JOINT LeftHandThumb1
                {
                  OFFSET 1.833 -1.3875 1.3896
                  CHANNELS 3 Zrotation Xrotation Yrotation
                  JOINT LeftHandThumb2
                  {
                    OFFSET 3.4129 -1.121 2.5732
                    CHANNELS 3 Zrotation Xrotation Yrotation
                    JOINT LeftHandThumb3
                    {
                      OFFSET 2.2474 -0.804199 1.6192
                      CHANNELS 3 Zrotation Xrotation Yrotation
                      End Site
                      {
                        OFFSET 1.6527 -0.5689 1.1317
                      }
                    }
                  }
                }
              }
            }
          }
        }
        JOINT RightShoulder
        {
          OFFSET -2.2086 21.1115 7.2329
          CHANNELS 3 Zrotation Xrotation Yrotation
          JOINT RightArm
          {
            OFFSET -13.1216 3.0287 -4.9007
            CHANNELS 3 Zrotation Xrotation Yrotation
            JOINT RightForeArm
            {
              OFFSET -27.4081 -0.0973053 -0.2375
              CHANNELS 3 Zrotation Xrotation Yrotation
              JOINT RightHand
              {
                OFFSET -22.8641 0.0664063 -0.1369
                CHANNELS 3 Zrotation Xrotation Yrotation
                JOINT RightHandIndex1
                {
                  OFFSET -8.8614 0.774994 2.4612
                  CHANNELS 3 Zrotation Xrotation Yrotation
                  JOINT RightHandIndex2
                  {
                    OFFSET -3.3146 -0.808304 0.5841
                    CHANNELS 3 Zrotation Xrotation Yrotation
                    JOINT RightHandIndex3
                    {
                      OFFSET -2.2628 -0.552002 0.3989
                      CHANNELS 3 Zrotation Xrotation Yrotation
                      End Site
                      {
                        OFFSET -1.6102 -0.4807 0.2612
                      }
                    }
                  }
                }
                JOINT RightHandMiddle1
                {
                  OFFSET -8.9937 0.894989 0.2143
                  CHANNELS 3 Zrotation Xrotation Yrotation
                  JOINT RightHandMiddle2
                  {
                    OFFSET -4.0984 0.0113983 -0.0242
                    CHANNELS 3 Zrotation Xrotation Yrotation
                    JOINT RightHandMiddle3
                    {
                      OFFSET -2.2716 0.00691223 -0.0138001
                      CHANNELS 3 Zrotation Xrotation Yrotation
                      End Site
                      {
                        OFFSET -2.0404 -0.1441 0.0027
                      }
                    }
                  }
                }
                JOINT RightHandRing1
                {
                  OFFSET -8.5234 0.597198 -2.0164
                  CHANNELS 3 Zrotation Xrotation Yrotation
                  JOINT RightHandRing2
                  {
                    OFFSET -3.7188 -0.188309 -0.2328
                    CHANNELS 3 Zrotation Xrotation Yrotation
                    JOINT RightHandRing3
                    {
                      OFFSET -2.1191 -0.106598 -0.1332
                      CHANNELS 3 Zrotation Xrotation Yrotation
                      End Site
                      {
                        OFFSET -1.8737 -0.2304 -0.0886
                      }
                    }
                  }
                }
                JOINT RightHandPinky1
                {
                  OFFSET -7.9094 -0.601105 -3.4825
                  CHANNELS 3 Zrotation Xrotation Yrotation
                  JOINT RightHandPinky2
                  {
                    OFFSET -2.2874 -0.477005 -0.6314
                    CHANNELS 3 Zrotation Xrotation Yrotation
                    JOINT RightHandPinky3
                    {
                      OFFSET -1.6774 -0.349396 -0.4633
                      CHANNELS 3 Zrotation Xrotation Yrotation
                      End Site
                      {
                        OFFSET -1.4888 -0.4091 -0.3416
                      }
                    }
                  }
                }
                JOINT RightHandThumb1
                {
                  OFFSET -1.833 -1.38751 1.3896
                  CHANNELS 3 Zrotation Xrotation Yrotation
                  JOINT RightHandThumb2
                  {
                    OFFSET -3.41299 -1.12099 2.5732
                    CHANNELS 3 Zrotation Xrotation Yrotation
                    JOINT RightHandThumb3
                    {
                      OFFSET -2.24741 -0.804108 1.6192
                      CHANNELS 3 Zrotation Xrotation Yrotation
                      End Site
                      {
                        OFFSET -1.6527 -0.5689 1.1317
                      }
                    }
                  }
                }
              }
            }
          }
        }
      }
    }
  }
  JOINT RightUpLeg
  {
    OFFSET -9.1966 3.8861 -0.7581
    CHANNELS 3 Zrotation Xrotation Yrotation
    JOINT RightLeg
    {
      OFFSET -0.7359 -41.0265 0
      CHANNELS 3 Zrotation Xrotation Yrotation
      JOINT RightFoot
      {
        OFFSET 0 -40.2855 0
        CHANNELS 3 Zrotation Xrotation Yrotation
        JOINT RightToeBase
        {
          OFFSET 0 -5.6122 11.7359
          CHANNELS 3 Zrotation Xrotation Yrotation
          End Site
          {
            OFFSET 0 0 7.8731
          }
        }
      }
    }
  }
  JOINT LeftUpLeg
  {
    OFFSET 9.1965 3.8864 -0.7581
    CHANNELS 3 Zrotation Xrotation Yrotation
    JOINT LeftLeg
    {
      OFFSET 0.7359 -41.0268 0
      CHANNELS 3 Zrotation Xrotation Yrotation
      JOINT LeftFoot
      {
        OFFSET 0 -40.2855 0
        CHANNELS 3 Zrotation Xrotation Yrotation
        JOINT LeftToeBase
        {
          OFFSET 0 -5.6122 11.7359
          CHANNELS 3 Zrotation Xrotation Yrotation
          End Site
          {
            OFFSET 0 0 7.8731
          }
        }
      }
    }
  }
}
MOTION
Frames:	4
Frame Time:	0.0333333
-0.00344798 5.61339 5.9478 -180 -81.997 -180 -0.0357082 0.0802312 -0.195539 -0.0711425 0.160608 -0.391029 -0.0711425 0.160591 -0.391029 9.82996e-005 33.2733 -0.000256901 4.39051e-008 -7.3331 -1.24668e-007 16.1405 4.53708 7.01643 -63.0135 -61.5698 -83.1858 25.77 -26.7796 -125.278 -11.7429 -10.1439 -23.6828 5.31276e-008 2.47427e-009 4.31376e-009 5.31275e-008 2.47426e-009 4.31375e-009 5.31275e-008 2.47426e-009 4.31375e-009 5.31276e-008 2.47427e-009 4.31376e-009 -0.0146353 -8.91664e-005 -8.87538e-007 5.31276e-008 2.47372e-009 4.31403e-009 5.31276e-008 2.47427e-009 4.31376e-009 -0.0187447 -0.00117451 5.89648e-005 5.31276e-008 2.47354e-009 4.31361e-009 5.31276e-008 2.47427e-009 4.31376e-009 -0.0122785 -0.00325096 0.00067578 5.31277e-008 2.47351e-009 4.31251e-009 5.31276e-008 2.47427e-009 4.31376e-009 5.31275e-008 2.47426e-009 4.31375e-009 5.31275e-008 2.47426e-009 4.31375e-009 -16.1439 4.53791 -7.0202 63.0085 -61.5743 83.1806 -25.7798 -26.7755 125.243 11.7391 -10.145 23.6789 2.98177e-016 0 -7.95139e-016 3.97569e-016 0 -1.59028e-015 2.98177e-016 1.59028e-015 -1.59028e-015 2.98177e-016 0 -7.95139e-016 0.014978 -9.14805e-005 1.29018e-006 3.97569e-016 1.59028e-015 1.59028e-015 2.98177e-016 0 -7.95139e-016 0.0189761 -0.00118822 -5.89244e-005 3.97569e-016 6.36111e-015 -0 2.98177e-016 0 -7.95139e-016 0.0122797 -0.00325054 -0.000677326 -1.98785e-016 3.18055e-015 -7.95139e-016 2.98177e-016 0 -7.95139e-016 3.97569e-016 0 -1.59028e-015 2.98177e-016 1.59028e-015 -1.59028e-015 -39.0755 7.045 -37.1661 -58.621 49.1719 44.5267 8.5651 -3.25395 -1.79316 -4.96274e-007 -2.43465e-006 3.56578e-006 39.0584 7.05911 37.1257 57.6535 48.6035 -43.2731 -8.58172 -3.24195 1.76418 -3.53113e-031 3.18055e-015 6.36111e-015 
-0.00326689 5.61452 5.94879 -180 -81.997 -180 -0.0359173 0.119722 -0.195809 -0.0714256 0.239517 -0.391544 -0.0714255 0.23952 -0.391544 -0.00012748 33.6187 0.000314264 9.96666e-008 -6.49557 -3.66826e-008 16.1405 4.53698 7.01696 -63.0135 -61.5698 -83.1858 25.77 -26.7796 -125.278 -11.7429 -10.1439 -23.6828 1.0627e-007 4.94776e-009 8.44479e-009 -1.93556e-008 -5.25125e-009 -4.29301e-007 -9.93923e-017 1.59028e-015 -0 1.0627e-007 4.94776e-009 8.44479e-009 -0.0146262 -8.93964e-005 -1.20108e-006 -9.93923e-017 3.18055e-015 7.95139e-016 1.0627e-007 4.94776e-009 8.44479e-009 -0.0187585 -0.00117657 5.93375e-005 9.93923e-017 -1.59028e-015 7.95139e-016 1.0627e-007 4.94776e-009 8.44479e-009 -0.012276 -0.00324975 0.000676057 1.98785e-016 1.59028e-015 -0 1.0627e-007 4.94776e-009 8.44479e-009 -1.93556e-008 -5.25125e-009 -4.29301e-007 -9.93923e-017 1.59028e-015 -0 -16.1439 4.53754 -7.0198 63.0085 -61.5743 83.1805 -25.7797 -26.7754 125.243 11.7391 -10.145 23.6789 -2.21037e-007 -6.1972e-007 2.27889e-007 -1.98785e-016 0 -0 -1.06263e-007 5.15361e-009 -8.35636e-009 -2.21037e-007 -6.1972e-007 2.27889e-007 0.015005 -9.23253e-005 -6.87089e-007 -1.06263e-007 5.15251e-009 -8.35694e-009 -2.21037e-007 -6.1972e-007 2.27889e-007 0.0190148 -0.00119307 -6.00971e-005 -2.18751e-007 -6.19825e-007 2.27987e-007 -2.21037e-007 -6.1972e-007 2.27889e-007 0.0122862 -0.00325379 -0.000678205 -1.06263e-007 5.15205e-009 -8.3539e-009 -2.21037e-007 -6.1972e-007 2.27889e-007 -1.98785e-016 0 -0 -1.06263e-007 5.15361e-009 -8.35636e-009 -39.0813 7.0416 -37.1761 -58.9213 49.3421 44.9167 8.56236 -3.25582 -1.80102 -7.11952e-007 -4.23757e-007 1.95255e-007 39.065 7.05483 37.1375 57.9939 48.8073 -43.7188 -8.5783 -3.24458 1.77358 -9.29504e-008 -1.71274e-007 -3.03764e-006 
-0.00310466 5.61553 5.94968 -180 -81.997 -180 -0.0360682 0.155105 -0.195853 -0.071606 0.310394 -0.391612 -0.0716061 0.310373 -0.391612 0.000146002 33.9299 -0.000354062 1.69711e-007 -5.74111 -8.9173e-008 16.1405 4.53719 7.01633 -63.0135 -61.5698 -83.1857 25.77 -26.7796 -125.278 -11.7429 -10.1439 -23.6828 5.31413e-008 2.47353e-009 4.1401e-009 5.31413e-008 2.47354e-009 4.14011e-009 5.31413e-008 2.47354e-009 4.1401e-009 5.31413e-008 2.47353e-009 4.1401e-009 -0.0146096 -8.92861e-005 -8.99907e-009 5.31414e-008 2.47302e-009 4.14038e-009 5.31413e-008 2.47353e-009 4.1401e-009 -0.0187438 -0.00117597 5.88836e-005 5.31414e-008 2.47284e-009 4.13997e-009 5.31413e-008 2.47353e-009 4.1401e-009 -0.0122625 -0.00324666 0.000676878 5.31415e-008 2.47279e-009 4.13886e-009 5.31413e-008 2.47353e-009 4.1401e-009 5.31413e-008 2.47354e-009 4.14011e-009 5.31413e-008 2.47354e-009 4.1401e-009 -16.1439 4.53806 -7.02023 63.0085 -61.5743 83.1806 -25.7798 -26.7755 125.243 11.7391 -10.145 23.6789 2.98177e-016 1.59028e-015 -1.59028e-015 9.93923e-017 1.59028e-015 -7.95139e-016 2.98177e-016 1.59028e-015 -0 2.98177e-016 1.59028e-015 -1.59028e-015 0.0149982 -9.13665e-005 1.4616e-007 1.98785e-016 -4.77083e-015 -0 2.98177e-016 1.59028e-015 -1.59028e-015 0.0189727 -0.00118955 -5.93571e-005 -6.62086e-032 -4.77083e-015 -7.95139e-016 2.98177e-016 1.59028e-015 -1.59028e-015 0.0122931 -0.00325482 -0.000677509 -9.93923e-017 1.59028e-015 7.95139e-016 2.98177e-016 1.59028e-015 -1.59028e-015 9.93923e-017 1.59028e-015 -7.95139e-016 2.98177e-016 1.59028e-015 -0 -39.0866 7.03854 -37.1851 -59.1939 49.494 45.2699 8.5599 -3.25747 -1.80809 2.3404e-007 4.258e-006 2.91965e-007 39.0709 7.05088 37.1482 58.3038 48.9893 -44.1232 -8.57526 -3.24696 1.78202 4.84956e-007 -2.43832e-006 -3.56607e-006 
-0.00294167 5.61654 5.95057 -180 -81.997 -180 -0.036247 0.190691 -0.196059 -0.0718419 0.381536 -0.392 -0.0718417 0.381494 -0.392 1.42864e-005 34.2407 -3.76408e-005 2.88618e-007 -4.9861 -6.81405e-008 16.1405 4.53707 7.01663 -63.0135 -61.5698 -83.1857 25.77 -26.7796 -125.278 -11.7429 -10.1439 -23.6828 5.31476e-008 2.47319e-009 4.05773e-009 1.59443e-007 7.41957e-009 1.21732e-008 5.31476e-008 2.47318e-009 4.05773e-009 5.31476e-008 2.47319e-009 4.05773e-009 -0.0146177 -8.77709e-005 -3.20695e-007 5.31477e-008 2.47267e-009 4.05801e-009 5.31476e-008 2.47319e-009 4.05773e-009 -0.0187568 -0.00117548 5.87532e-005 5.31478e-008 2.4725e-009 4.05761e-009 5.31476e-008 2.47319e-009 4.05773e-009 -0.0122989 -0.00325525 0.000677311 5.31478e-008 2.47245e-009 4.05649e-009 5.31476e-008 2.47319e-009 4.05773e-009 1.59443e-007 7.41957e-009 1.21732e-008 5.31476e-008 2.47318e-009 4.05773e-009 -16.1439 4.5378 -7.02003 63.0085 -61.5743 83.1805 -25.7798 -26.7754 125.243 11.7391 -10.145 23.6789 -3.21076e-008 4.53121e-009 4.25154e-007 3.21076e-008 -4.53121e-009 -4.25154e-007 -3.21076e-008 4.53121e-009 4.25154e-007 -3.21076e-008 4.53121e-009 4.25154e-007 0.01499 -9.21318e-005 -7.71622e-007 -3.21099e-008 4.58683e-009 4.25153e-007 -3.21076e-008 4.53121e-009 4.25154e-007 0.0189845 -0.00118943 -5.97059e-005 -3.21066e-008 4.60183e-009 4.25153e-007 -3.21076e-008 4.53121e-009 4.25154e-007 0.0122661 -0.00324639 -0.00067625 -3.20977e-008 4.57712e-009 4.25154e-007 -3.21076e-008 4.53121e-009 4.25154e-007 3.21076e-008 -4.53121e-009 -4.25154e-007 -3.21076e-008 4.53121e-009 4.25154e-007 -39.0919 7.03559 -37.1941 -59.4686 49.6449 45.6252 8.55743 -3.25907 -1.81515 5.517e-008 -1.52855e-007 3.04622e-006 39.0768 7.04701 37.1589 58.6166 49.1698 -44.5305 -8.57219 -3.24925 1.79047 2.27119e-006 5.733e-007 -2.63373e-007 
